<svg width="136" height="48" viewBox="0 0 136 48" fill="none" xmlns="http://www.w3.org/2000/svg">
<path d="M113.231 29.6521C112.649 28.1746 111.846 26.896 110.85 25.8542C109.851 24.8155 108.665 23.9916 107.331 23.4138C107.312 23.4043 105.427 22.4888 103.22 22.5362C101.883 22.5646 101.153 22.8961 100.568 23.2118C100.514 23.2434 100.463 23.2749 100.41 23.3096C100.166 23.4707 99.5559 23.8748 99.0057 24.5472C97.956 25.829 97.8137 27.8684 98.0319 29.349L98.1173 29.9362L98.5504 29.5542C98.9362 29.2133 99.6476 28.7113 100.678 28.4587C101.228 28.323 101.807 28.3104 102.37 28.3861C103.714 28.5692 104.858 29.1533 105.778 30.1288C106.901 31.319 107.47 32.8565 107.47 34.697C107.47 36.5439 106.898 38.0592 105.769 39.2021C104.637 40.3481 103.189 40.929 101.462 40.929C99.7203 40.929 98.2754 40.3639 97.1592 39.2526C95.376 37.472 95.4993 33.9646 95.5025 33.9141V13.2261C95.5025 13.1219 95.4329 13.0272 95.3317 12.9988L94.6108 12.781C93.9911 12.5947 93.2766 12.5 92.4861 12.5C91.4174 12.5 90.5574 12.7179 89.9346 13.1504C89.3781 13.5355 89.0967 14.2522 89.0967 15.2719V33.5668C89.0967 35.5178 89.2959 37.2258 89.6879 38.6464C90.0768 40.045 90.6302 41.232 91.3384 42.176C92.4703 43.6629 93.9342 44.8089 95.6922 45.5824C97.4691 46.3622 99.4705 46.76 101.646 46.76C103.423 46.76 105.092 46.4632 106.61 45.8792C108.124 45.2951 109.449 44.4711 110.553 43.4293C111.653 42.3907 112.529 41.1058 113.158 39.6156C113.787 38.1224 114.103 36.4523 114.103 34.6528C114.113 32.8123 113.816 31.1327 113.231 29.6521Z" fill="white"/>
<path d="M74.5277 12.7905C73.8891 12.6042 73.165 12.5063 72.3777 12.5063C71.309 12.5063 70.449 12.7242 69.8262 13.1567C69.2697 13.5419 68.9883 14.2585 68.9883 15.2782V46.1065H75.4383V13.062L74.5277 12.7905Z" fill="white"/>
<path d="M82.486 19.6665C83.5009 19.6665 84.3672 19.3224 85.0597 18.6467C85.7489 17.9711 86.0967 17.1188 86.0967 16.1085C86.0967 15.0983 85.7458 14.2332 85.0565 13.545C84.3641 12.8568 83.5009 12.5063 82.4891 12.5063C81.4773 12.5063 80.6237 12.8536 79.947 13.5418C79.2704 14.2332 78.9258 15.0951 78.9258 16.1117C78.9258 17.1251 79.2673 17.9806 79.9439 18.6531C80.6142 19.3255 81.471 19.6665 82.486 19.6665Z" fill="white"/>
<path d="M82.6717 23.2114C81.603 23.2114 80.743 23.4292 80.1201 23.8618C79.5636 24.2501 79.2822 24.9636 79.2822 25.9833V46.1061H85.7354V23.7639L84.8248 23.4924C84.1862 23.3061 83.4621 23.2114 82.6717 23.2114Z" fill="white"/>
<path d="M122.53 12.7905C121.891 12.6042 121.167 12.5063 120.38 12.5063C119.311 12.5063 118.451 12.7242 117.828 13.1567C117.272 13.545 116.987 14.2585 116.987 15.2782V46.1065H123.441V13.062L122.53 12.7905Z" fill="white"/>
<path d="M130.343 19.6694C131.358 19.6694 132.224 19.3253 132.913 18.6497C133.602 17.9772 133.95 17.1217 133.95 16.1114C133.95 15.1012 133.599 14.2361 132.91 13.5479C132.218 12.8597 131.354 12.5093 130.343 12.5093C129.331 12.5093 128.474 12.8565 127.801 13.5448C127.124 14.2362 126.779 15.098 126.779 16.1146C126.779 17.128 127.121 17.9835 127.797 18.656C128.471 19.3253 129.328 19.6694 130.343 19.6694Z" fill="white"/>
<path d="M130.532 23.2114C129.46 23.2114 128.604 23.4292 127.981 23.8618C127.424 24.2469 127.14 24.9636 127.14 25.9833V46.1061H133.59V23.7639L132.679 23.4924C132.044 23.3061 131.32 23.2114 130.532 23.2114Z" fill="white"/>
<path d="M65.134 29.6521C64.5522 28.1746 63.7491 26.896 62.7531 25.8542C61.754 24.8155 60.5683 23.9916 59.234 23.4138C59.2151 23.4043 57.3307 22.4888 55.1237 22.5362C53.7863 22.5646 53.0559 22.8961 52.471 23.2118C52.4172 23.2434 52.3666 23.2749 52.3129 23.3096C52.0694 23.4707 51.4592 23.8748 50.9091 24.5472C49.8593 25.829 49.7171 27.8684 49.9352 29.349L50.0206 29.9362L50.4538 29.5542C50.8395 29.2133 51.5541 28.7113 52.5816 28.4587C53.1318 28.323 53.7104 28.3104 54.2732 28.3861C55.617 28.5692 56.7615 29.1533 57.6816 30.1288C58.8041 31.319 59.3732 32.8565 59.3732 34.697C59.3732 36.5439 58.8009 38.0592 57.6721 39.2021C56.5402 40.3481 55.0921 40.929 53.3658 40.929C51.6236 40.929 50.1787 40.3639 49.0626 39.2526C47.2793 37.472 47.4026 33.9646 47.4058 33.9141V13.2261C47.4058 13.1219 47.3362 13.0272 47.2351 12.9988L46.5142 12.781C45.8945 12.5947 45.1799 12.5 44.3894 12.5C43.3208 12.5 42.4607 12.7179 41.8379 13.1504C41.2814 13.5355 41 14.2522 41 15.2719V33.5668C41 35.5178 41.1992 37.2258 41.5913 38.6464C41.9802 40.045 42.5335 41.232 43.2417 42.176C44.3736 43.6629 45.8375 44.8089 47.5955 45.5824C49.3724 46.3622 51.3738 46.76 53.5491 46.76C55.3261 46.76 56.9955 46.4632 58.5132 45.8792C60.0277 45.2951 61.3525 44.4711 62.4559 43.4293C63.5594 42.3907 64.432 41.1058 65.0612 39.6156C65.6904 38.1224 66.0066 36.4523 66.0066 34.6528C66.0129 32.8123 65.7189 31.1327 65.134 29.6521Z" fill="white"/>
<path d="M34.3305 43.817C31.4546 33.5402 31.4546 26.4784 33.4182 15.1278C33.5981 14.0192 32.7047 13.0718 31.5966 13.0718C31.543 13.0718 31.5082 13.0718 31.4546 13.0718C25.649 13.6434 21.9144 13.9466 18.1955 13.9466C14.4767 13.9466 10.7263 13.6592 4.93648 13.0718C4.88281 13.0718 4.84808 13.0718 4.79442 13.0718C3.70528 13.0718 2.81187 14.0192 2.97287 15.1278C4.93963 26.4784 4.93963 33.5402 2.07947 43.817C1.72274 44.9792 2.61614 46.0499 3.77789 46.0499H32.6353C33.7938 46.0499 34.6873 44.9761 34.3305 43.817ZM23.9853 19.8872C24.7524 19.8872 25.3617 20.4936 25.3617 21.2263C25.3617 21.9243 24.7556 22.5654 23.9853 22.5654C23.2182 22.5654 22.6815 21.94 22.6815 21.2263C22.6815 20.4936 23.2182 19.8872 23.9853 19.8872ZM12.2984 19.8872C13.0655 19.8872 13.6748 20.4936 13.6748 21.2263C13.6748 21.9243 13.0687 22.5654 12.2984 22.5654C11.5313 22.5654 10.9946 21.94 10.9946 21.2263C10.9946 20.4936 11.5313 19.8872 12.2984 19.8872ZM18.1766 33.0601C12.5478 33.0601 10.7263 28.1459 10.7263 25.7678C10.7263 25.2688 11.1209 24.874 11.6197 24.874C12.1185 24.874 12.5131 25.2688 12.5131 25.7678C12.5131 27.5553 13.8895 31.2726 18.1766 31.2726C22.4479 31.2726 23.8401 27.5711 23.8401 25.7678C23.8401 25.2688 24.2347 24.874 24.7335 24.874C25.2323 24.874 25.6269 25.2688 25.6269 25.7678C25.6301 28.1617 23.8054 33.0601 18.1766 33.0601Z" fill="white"/>
<path d="M21.9242 8.20607C23.9501 7.72749 25.2047 5.69646 24.7263 3.66966C24.2479 1.64286 22.2177 0.387771 20.1918 0.866356C18.1658 1.34494 16.9113 3.37597 17.3896 5.40277C17.868 7.42957 19.8982 8.68466 21.9242 8.20607Z" fill="#FFCD00"/>
<path d="M30.0278 11.9415L30.1636 8.18004C30.2078 6.92623 28.825 6.13669 27.7706 6.81886L20.7402 11.3635C20.2414 11.6856 19.9383 12.1562 19.8184 12.6616C22.6785 12.5952 25.7376 12.3552 30.0278 11.9415Z" fill="#00CDC7"/>
<path d="M6.58107 11.9664C11.1744 12.418 14.6596 12.6801 18.107 12.6833L16.4591 7.21959C16.1465 6.18053 15.0511 5.59309 14.0125 5.90575L7.40503 7.8986C6.3664 8.21126 5.77922 9.30716 6.09175 10.3462L6.58107 11.9664Z" fill="#FF4646"/>
</svg>
